<?xml version="1.0" encoding="UTF-8" standalone="no"?>
<svg width="60px" height="54px" viewBox="0 0 60 54" version="1.1" xmlns="http://www.w3.org/2000/svg" xmlns:xlink="http://www.w3.org/1999/xlink">
    <!-- Generator: Sketch 40.1 (33804) - http://www.bohemiancoding.com/sketch -->
    <title>168 - Coins (business, finance, marketing, retro)</title>
    <desc>Created with Sketch.</desc>
    <defs></defs>
    <g id="Page-1" stroke="none" stroke-width="1" fill="none" fill-rule="evenodd">
        <g id="Icons" transform="translate(-359.000000, -393.000000)">
            <g id="168---Coins-(business,-finance,-marketing,-retro)" transform="translate(360.000000, 394.000000)">
                <path d="M29,45 C14.641,45 3,42.038 3,39 L3,45.996 C3.008,49.032 14.645,52 29,52 C43.355,52 54.992,49.032 55,45.996 L55,39 C55,42.038 43.359,45 29,45" id="Fill-269" fill="#E5A900"></path>
                <path d="M26,34 C11.641,34 0,31.038 0,28 L0,34.996 C0.008,38.032 11.645,41 26,41 C40.355,41 51.992,38.032 52,34.996 L52,28 C52,31.038 40.359,34 26,34" id="Fill-270" fill="#F4B900"></path>
                <path d="M32,23 C17.641,23 6,20.038 6,17 L6,23.996 C6.008,27.032 17.645,30 32,30 C46.355,30 57.992,27.032 58,23.996 L58,17 C58,20.038 46.359,23 32,23" id="Fill-271" fill="#E5A900"></path>
                <path d="M52,5.1298 C52,8.1678 40.359,10.9998 26,10.9998 C11.641,10.9998 0,8.1678 0,5.1298 C0,2.0918 11.641,-0.0002 26,-0.0002 C40.359,-0.0002 52,2.0918 52,5.1298" id="Fill-272" fill="#FFCA00"></path>
                <path d="M26,11 C11.641,11 0,8.038 0,5 L0,11.996 C0.008,15.032 11.645,18 26,18 C40.355,18 51.992,15.032 52,11.996 L52,5 C52,8.038 40.359,11 26,11" id="Fill-273" fill="#F4B900"></path>
                <path d="M4,8.074 L4,15.069 C4.608,15.293 5.274,15.509 6,15.715 L6,8.719 C5.274,8.513 4.608,8.297 4,8.074" id="Fill-274" fill="#DBA200"></path>
                <path d="M46,8.719 L46,15.715 C46.726,15.509 47.392,15.293 48,15.069 L48,8.074 C47.392,8.297 46.726,8.513 46,8.719" id="Fill-275" fill="#DBA200"></path>
                <path d="M9,9.4448 L9,16.4418 C9.64,16.5748 10.307,16.7008 11,16.8198 L11,9.8228 C10.307,9.7038 9.64,9.5778 9,9.4448" id="Fill-276" fill="#DBA200"></path>
                <path d="M41,9.8228 L41,16.8208 C41.693,16.7008 42.36,16.5748 43,16.4418 L43,9.4448 C42.36,9.5778 41.693,9.7038 41,9.8228" id="Fill-277" fill="#DBA200"></path>
                <path d="M14,10.2697 L14,17.2677 C14.652,17.3517 15.317,17.4297 16,17.5007 L16,10.5017 C15.317,10.4307 14.652,10.3527 14,10.2697" id="Fill-278" fill="#DBA200"></path>
                <path d="M36,10.5015 L36,17.5005 C36.683,17.4295 37.348,17.3515 38,17.2685 L38,10.2695 C37.348,10.3535 36.683,10.4315 36,10.5015" id="Fill-279" fill="#DBA200"></path>
                <path d="M19,10.7585 L19,17.7575 C19.657,17.8035 20.323,17.8445 21,17.8775 L21,10.8775 C20.323,10.8445 19.657,10.8045 19,10.7585" id="Fill-280" fill="#DBA200"></path>
                <path d="M31,10.8776 L31,17.8776 C31.677,17.8446 32.343,17.8036 33,17.7576 L33,10.7586 C32.343,10.8046 31.677,10.8446 31,10.8776" id="Fill-281" fill="#DBA200"></path>
                <path d="M26,11 C25.665,11 25.332,10.997 25,10.994 L25,17.994 C25.332,17.997 25.665,18 26,18 C26.335,18 26.668,17.997 27,17.994 L27,10.994 C26.668,10.997 26.335,11 26,11" id="Fill-282" fill="#DBA200"></path>
                <path d="M10,20.074 L10,27.069 C10.608,27.293 11.274,27.509 12,27.715 L12,20.719 C11.274,20.513 10.608,20.297 10,20.074" id="Fill-283" fill="#C48C00"></path>
                <path d="M52,20.719 L52,27.715 C52.726,27.509 53.392,27.293 54,27.069 L54,20.074 C53.392,20.297 52.726,20.513 52,20.719" id="Fill-284" fill="#C48C00"></path>
                <path d="M15,21.4448 L15,28.4418 C15.64,28.5748 16.307,28.7008 17,28.8198 L17,21.8228 C16.307,21.7038 15.64,21.5778 15,21.4448" id="Fill-285" fill="#C48C00"></path>
                <path d="M47,21.8228 L47,28.8208 C47.693,28.7008 48.36,28.5748 49,28.4418 L49,21.4448 C48.36,21.5778 47.693,21.7038 47,21.8228" id="Fill-286" fill="#C48C00"></path>
                <path d="M20,22.2697 L20,29.2677 C20.652,29.3517 21.317,29.4297 22,29.5007 L22,22.5017 C21.317,22.4307 20.652,22.3527 20,22.2697" id="Fill-287" fill="#C48C00"></path>
                <path d="M42,22.5015 L42,29.5005 C42.683,29.4295 43.348,29.3515 44,29.2685 L44,22.2695 C43.348,22.3535 42.683,22.4315 42,22.5015" id="Fill-288" fill="#C48C00"></path>
                <path d="M25,22.7585 L25,29.7575 C25.657,29.8035 26.323,29.8445 27,29.8775 L27,22.8775 C26.323,22.8445 25.657,22.8045 25,22.7585" id="Fill-289" fill="#C48C00"></path>
                <path d="M37,22.8776 L37,29.8776 C37.677,29.8446 38.343,29.8036 39,29.7576 L39,22.7586 C38.343,22.8046 37.677,22.8446 37,22.8776" id="Fill-290" fill="#C48C00"></path>
                <path d="M32,23 C31.665,23 31.332,22.997 31,22.994 L31,29.994 C31.332,29.997 31.665,30 32,30 C32.335,30 32.668,29.997 33,29.994 L33,22.994 C32.668,22.997 32.335,23 32,23" id="Fill-291" fill="#C48C00"></path>
                <path d="M4,31.074 L4,38.069 C4.608,38.293 5.274,38.509 6,38.715 L6,31.719 C5.274,31.513 4.608,31.297 4,31.074" id="Fill-292" fill="#DBA200"></path>
                <path d="M46,31.719 L46,38.715 C46.726,38.509 47.392,38.293 48,38.069 L48,31.074 C47.392,31.297 46.726,31.513 46,31.719" id="Fill-293" fill="#DBA200"></path>
                <path d="M9,32.4448 L9,39.4418 C9.64,39.5748 10.307,39.7008 11,39.8198 L11,32.8228 C10.307,32.7038 9.64,32.5778 9,32.4448" id="Fill-294" fill="#DBA200"></path>
                <path d="M41,32.8228 L41,39.8208 C41.693,39.7008 42.36,39.5748 43,39.4418 L43,32.4448 C42.36,32.5778 41.693,32.7038 41,32.8228" id="Fill-295" fill="#DBA200"></path>
                <path d="M14,33.2697 L14,40.2677 C14.652,40.3517 15.317,40.4297 16,40.5007 L16,33.5017 C15.317,33.4307 14.652,33.3527 14,33.2697" id="Fill-296" fill="#DBA200"></path>
                <path d="M36,33.5015 L36,40.5005 C36.683,40.4295 37.348,40.3515 38,40.2685 L38,33.2695 C37.348,33.3535 36.683,33.4315 36,33.5015" id="Fill-297" fill="#DBA200"></path>
                <path d="M19,33.7585 L19,40.7575 C19.657,40.8035 20.323,40.8445 21,40.8775 L21,33.8775 C20.323,33.8445 19.657,33.8045 19,33.7585" id="Fill-298" fill="#DBA200"></path>
                <path d="M31,33.8776 L31,40.8776 C31.677,40.8446 32.343,40.8036 33,40.7576 L33,33.7586 C32.343,33.8046 31.677,33.8446 31,33.8776" id="Fill-299" fill="#DBA200"></path>
                <path d="M26,34 C25.665,34 25.332,33.997 25,33.994 L25,40.994 C25.332,40.997 25.665,41 26,41 C26.335,41 26.668,40.997 27,40.994 L27,33.994 C26.668,33.997 26.335,34 26,34" id="Fill-300" fill="#DBA200"></path>
                <path d="M7,42.074 L7,49.069 C7.608,49.293 8.274,49.509 9,49.715 L9,42.719 C8.274,42.513 7.608,42.297 7,42.074" id="Fill-301" fill="#C48C00"></path>
                <path d="M49,42.719 L49,49.715 C49.726,49.509 50.392,49.293 51,49.069 L51,42.074 C50.392,42.297 49.726,42.513 49,42.719" id="Fill-302" fill="#C48C00"></path>
                <path d="M12,43.4448 L12,50.4418 C12.64,50.5748 13.307,50.7008 14,50.8198 L14,43.8228 C13.307,43.7038 12.64,43.5778 12,43.4448" id="Fill-303" fill="#C48C00"></path>
                <path d="M44,43.8228 L44,50.8208 C44.693,50.7008 45.36,50.5748 46,50.4418 L46,43.4448 C45.36,43.5778 44.693,43.7038 44,43.8228" id="Fill-304" fill="#C48C00"></path>
                <path d="M17,44.2697 L17,51.2677 C17.652,51.3517 18.317,51.4297 19,51.5007 L19,44.5017 C18.317,44.4307 17.652,44.3527 17,44.2697" id="Fill-305" fill="#C48C00"></path>
                <path d="M39,44.5015 L39,51.5005 C39.683,51.4295 40.348,51.3515 41,51.2685 L41,44.2695 C40.348,44.3535 39.683,44.4315 39,44.5015" id="Fill-306" fill="#C48C00"></path>
                <path d="M22,44.7585 L22,51.7575 C22.657,51.8035 23.323,51.8445 24,51.8775 L24,44.8775 C23.323,44.8445 22.657,44.8045 22,44.7585" id="Fill-307" fill="#C48C00"></path>
                <path d="M34,44.8776 L34,51.8776 C34.677,51.8446 35.343,51.8036 36,51.7576 L36,44.7586 C35.343,44.8046 34.677,44.8446 34,44.8776" id="Fill-308" fill="#C48C00"></path>
                <path d="M29,45 C28.665,45 28.332,44.997 28,44.994 L28,51.994 C28.332,51.997 28.665,52 29,52 C29.335,52 29.668,51.997 30,51.994 L30,44.994 C29.668,44.997 29.335,45 29,45" id="Fill-309" fill="#C48C00"></path>
                <path d="M51.2118,36.3716 C48.3718,38.8696 38.1628,40.9996 25.9998,40.9996 C16.4898,40.9996 8.1768,39.6966 3.6438,37.9346 C3.2268,38.3136 2.9998,38.7126 2.9998,39.1296 C2.9998,42.1676 14.6408,44.9996 28.9998,44.9996 C43.3598,44.9996 54.9998,42.1676 54.9998,39.1296 C54.9998,38.0826 53.6148,37.1476 51.2118,36.3716" id="Fill-310" fill="#FCBB00"></path>
                <path d="M32,30 C18.787,30 7.884,27.485 6.226,24.717 C2.347,25.596 0,26.767 0,28.13 C0,31.167 11.641,34 26,34 C40.359,34 52,31.167 52,28.13 C52,27.996 51.97,27.865 51.925,27.735 C47.156,29.077 40.002,30 32,30" id="Fill-311" fill="#FFCA00"></path>
                <path d="M50.9929,13.5485 C47.8819,15.9685 37.8739,18.0005 25.9999,18.0005 C18.3319,18.0005 11.4409,17.1525 6.6819,15.9005 C6.2409,16.2895 5.9999,16.6995 5.9999,17.1295 C5.9999,20.1675 17.6409,23.0005 31.9999,23.0005 C46.3589,23.0005 57.9999,20.1675 57.9999,17.1295 C57.9999,15.6785 55.3369,14.4435 50.9929,13.5485" id="Fill-312" fill="#FCBB00"></path>
                <path d="M29,45 C14.641,45 3,42.038 3,39 L3,45.996 C3.008,49.032 14.645,52 29,52 C43.355,52 54.992,49.032 55,45.996 L55,39 C55,42.038 43.359,45 29,45 L29,45 Z" id="Stroke-2934" stroke="#000000" stroke-width="2" stroke-linecap="round"></path>
                <path d="M8,42.417 L8,49.412" id="Stroke-2935" stroke="#000000" stroke-width="2" stroke-linecap="round"></path>
                <path d="M50,49.4124 L50,42.4174" id="Stroke-2936" stroke="#000000" stroke-width="2" stroke-linecap="round"></path>
                <path d="M13,43.6428 L13,50.6398" id="Stroke-2937" stroke="#000000" stroke-width="2" stroke-linecap="round"></path>
                <path d="M45,50.64 L45,43.643" id="Stroke-2938" stroke="#000000" stroke-width="2" stroke-linecap="round"></path>
                <path d="M18,44.3916 L18,51.3906" id="Stroke-2939" stroke="#000000" stroke-width="2" stroke-linecap="round"></path>
                <path d="M40,51.3903 L40,44.3913" id="Stroke-2940" stroke="#000000" stroke-width="2" stroke-linecap="round"></path>
                <path d="M23,44.8228 L23,51.8228" id="Stroke-2941" stroke="#000000" stroke-width="2" stroke-linecap="round"></path>
                <path d="M35,51.8225 L35,44.8225" id="Stroke-2942" stroke="#000000" stroke-width="2" stroke-linecap="round"></path>
                <path d="M29,45 L29,52" id="Stroke-2943" stroke="#000000" stroke-width="2" stroke-linecap="round"></path>
                <path d="M26,34 C11.641,34 0,31.038 0,28 L0,34.996 C0.008,38.032 11.645,41 26,41 C40.355,41 51.992,38.032 52,34.996 L52,28 C52,31.038 40.359,34 26,34 L26,34 Z" id="Stroke-2944" stroke="#000000" stroke-width="2" stroke-linecap="round"></path>
                <path d="M5,31.417 L5,38.412" id="Stroke-2945" stroke="#000000" stroke-width="2" stroke-linecap="round"></path>
                <path d="M47,38.4124 L47,31.4174" id="Stroke-2946" stroke="#000000" stroke-width="2" stroke-linecap="round"></path>
                <path d="M10,32.6428 L10,39.6398" id="Stroke-2947" stroke="#000000" stroke-width="2" stroke-linecap="round"></path>
                <path d="M42,39.64 L42,32.643" id="Stroke-2948" stroke="#000000" stroke-width="2" stroke-linecap="round"></path>
                <path d="M15,33.3916 L15,40.3906" id="Stroke-2949" stroke="#000000" stroke-width="2" stroke-linecap="round"></path>
                <path d="M37,40.3903 L37,33.3913" id="Stroke-2950" stroke="#000000" stroke-width="2" stroke-linecap="round"></path>
                <path d="M20,33.8228 L20,40.8228" id="Stroke-2951" stroke="#000000" stroke-width="2" stroke-linecap="round"></path>
                <path d="M32,40.8225 L32,33.8225" id="Stroke-2952" stroke="#000000" stroke-width="2" stroke-linecap="round"></path>
                <path d="M26,34 L26,41" id="Stroke-2953" stroke="#000000" stroke-width="2" stroke-linecap="round"></path>
                <path d="M32,23 C17.641,23 6,20.038 6,17 L6,23.996 C6.008,27.032 17.645,30 32,30 C46.355,30 57.992,27.032 58,23.996 L58,17 C58,20.038 46.359,23 32,23 L32,23 Z" id="Stroke-2954" stroke="#000000" stroke-width="2" stroke-linecap="round"></path>
                <path d="M11,20.417 L11,27.412" id="Stroke-2955" stroke="#000000" stroke-width="2" stroke-linecap="round"></path>
                <path d="M53,27.4124 L53,20.4174" id="Stroke-2956" stroke="#000000" stroke-width="2" stroke-linecap="round"></path>
                <path d="M16,21.6428 L16,28.6398" id="Stroke-2957" stroke="#000000" stroke-width="2" stroke-linecap="round"></path>
                <path d="M48,28.64 L48,21.643" id="Stroke-2958" stroke="#000000" stroke-width="2" stroke-linecap="round"></path>
                <path d="M21,22.3916 L21,29.3906" id="Stroke-2959" stroke="#000000" stroke-width="2" stroke-linecap="round"></path>
                <path d="M43,29.3903 L43,22.3913" id="Stroke-2960" stroke="#000000" stroke-width="2" stroke-linecap="round"></path>
                <path d="M26,22.8228 L26,29.8228" id="Stroke-2961" stroke="#000000" stroke-width="2" stroke-linecap="round"></path>
                <path d="M38,29.8225 L38,22.8225" id="Stroke-2962" stroke="#000000" stroke-width="2" stroke-linecap="round"></path>
                <path d="M32,23 L32,30" id="Stroke-2963" stroke="#000000" stroke-width="2" stroke-linecap="round"></path>
                <path d="M52,5.1298 C52,8.1678 40.359,10.9998 26,10.9998 C11.641,10.9998 0,8.1678 0,5.1298 C0,2.0918 11.641,-0.0002 26,-0.0002 C40.359,-0.0002 52,2.0918 52,5.1298 L52,5.1298 Z" id="Stroke-2964" stroke="#000000" stroke-width="2" stroke-linecap="round"></path>
                <path d="M26,11 C11.641,11 0,8.038 0,5 L0,11.996 C0.008,15.032 11.645,18 26,18 C40.355,18 51.992,15.032 52,11.996 L52,5 C52,8.038 40.359,11 26,11 L26,11 Z" id="Stroke-2965" stroke="#000000" stroke-width="2" stroke-linecap="round"></path>
                <path d="M5,8.417 L5,15.412" id="Stroke-2966" stroke="#000000" stroke-width="2" stroke-linecap="round"></path>
                <path d="M47,15.4124 L47,8.4174" id="Stroke-2967" stroke="#000000" stroke-width="2" stroke-linecap="round"></path>
                <path d="M10,9.6428 L10,16.6398" id="Stroke-2968" stroke="#000000" stroke-width="2" stroke-linecap="round"></path>
                <path d="M42,16.64 L42,9.643" id="Stroke-2969" stroke="#000000" stroke-width="2" stroke-linecap="round"></path>
                <path d="M15,10.3916 L15,17.3906" id="Stroke-2970" stroke="#000000" stroke-width="2" stroke-linecap="round"></path>
                <path d="M37,17.3903 L37,10.3913" id="Stroke-2971" stroke="#000000" stroke-width="2" stroke-linecap="round"></path>
                <path d="M20,10.8228 L20,17.8228" id="Stroke-2972" stroke="#000000" stroke-width="2" stroke-linecap="round"></path>
                <path d="M32,17.8225 L32,10.8225" id="Stroke-2973" stroke="#000000" stroke-width="2" stroke-linecap="round"></path>
                <path d="M26,11 L26,18" id="Stroke-2974" stroke="#000000" stroke-width="2" stroke-linecap="round"></path>
                <path d="M51.2118,36.3716 C48.3718,38.8696 38.1628,40.9996 25.9998,40.9996 C16.4898,40.9996 8.1768,39.6966 3.6438,37.9346 C3.2268,38.3136 2.9998,38.7126 2.9998,39.1296 C2.9998,42.1676 14.6408,44.9996 28.9998,44.9996 C43.3598,44.9996 54.9998,42.1676 54.9998,39.1296 C54.9998,38.0826 53.6148,37.1476 51.2118,36.3716 L51.2118,36.3716 Z" id="Stroke-2975" stroke="#000000" stroke-width="2" stroke-linecap="round"></path>
                <path d="M32,30 C18.787,30 7.884,27.485 6.226,24.717 C2.347,25.596 0,26.767 0,28.13 C0,31.167 11.641,34 26,34 C40.359,34 52,31.167 52,28.13 C52,27.996 51.97,27.865 51.925,27.735 C47.156,29.077 40.002,30 32,30 L32,30 Z" id="Stroke-2976" stroke="#000000" stroke-width="2" stroke-linecap="round"></path>
                <path d="M50.9929,13.5485 C47.8819,15.9685 37.8739,18.0005 25.9999,18.0005 C18.3319,18.0005 11.4409,17.1525 6.6819,15.9005 C6.2409,16.2895 5.9999,16.6995 5.9999,17.1295 C5.9999,20.1675 17.6409,23.0005 31.9999,23.0005 C46.3589,23.0005 57.9999,20.1675 57.9999,17.1295 C57.9999,15.6785 55.3369,14.4435 50.9929,13.5485 L50.9929,13.5485 Z" id="Stroke-2977" stroke="#000000" stroke-width="2" stroke-linecap="round"></path>
            </g>
        </g>
    </g>
</svg>