<?xml version="1.0" encoding="UTF-8" standalone="no"?>
<svg width="60px" height="60px" viewBox="0 0 60 60" version="1.1" xmlns="http://www.w3.org/2000/svg" xmlns:xlink="http://www.w3.org/1999/xlink">
    <!-- Generator: Sketch 43.2 (39069) - http://www.bohemiancoding.com/sketch -->
    <title>51 -Time is Money- (business, finance, marketing)</title>
    <desc>Created with Sketch.</desc>
    <defs></defs>
    <g id="Page-1" stroke="none" stroke-width="1" fill="none" fill-rule="evenodd">
        <g id="Icons" transform="translate(-120.000000, -945.000000)">
            <g id="51--Time-is-Money--(business,-finance,-marketing)" transform="translate(121.000000, 946.000000)">
                <path d="M58.0003,46 C58.0003,52.627 52.6273,58 46.0003,58 C39.3733,58 34.0003,52.627 34.0003,46 C34.0003,39.373 39.3733,34 46.0003,34 C52.6273,34 58.0003,39.373 58.0003,46" id="Fill-763" fill="#F0C419"></path>
                <path d="M46.0003,58 C46.5093,58 47.0083,57.958 47.5003,57.896 C41.5823,57.157 37.0003,52.118 37.0003,46 C37.0003,39.882 41.5823,34.843 47.5003,34.104 C47.0083,34.042 46.5093,34 46.0003,34 C39.3733,34 34.0003,39.373 34.0003,46 C34.0003,52.627 39.3733,58 46.0003,58" id="Fill-764" fill="#F0C419"></path>
                <path d="M34.0003,46 C34.0003,39.373 39.3733,34 46.0003,34 C47.5733,34 49.0723,34.311 50.4493,34.862 C51.4513,32.096 52.0003,29.112 52.0003,26 C52.0003,11.641 40.3593,0 26.0003,0 C11.6413,0 0.0003,11.641 0.0003,26 C0.0003,40.359 11.6413,52 26.0003,52 C29.1123,52 32.0963,51.451 34.8623,50.449 C34.3113,49.072 34.0003,47.573 34.0003,46" id="Fill-766" fill="#ECF0F1"></path>
                <path d="M38.0003,27 L26.0003,27 C25.4483,27 25.0003,26.553 25.0003,26 C25.0003,25.447 25.4483,25 26.0003,25 L38.0003,25 C38.5523,25 39.0003,25.447 39.0003,26 C39.0003,26.553 38.5523,27 38.0003,27" id="Fill-767" fill="#35495E"></path>
                <path d="M26.0003,27 C25.4483,27 25.0003,26.553 25.0003,26 L25.0003,14 C25.0003,13.447 25.4483,13 26.0003,13 C26.5523,13 27.0003,13.447 27.0003,14 L27.0003,26 C27.0003,26.553 26.5523,27 26.0003,27" id="Fill-768" fill="#35495E"></path>
                <path d="M46.0003,53 C43.7943,53 42.0003,51.206 42.0003,49 C42.0003,48.447 42.4483,48 43.0003,48 C43.5523,48 44.0003,48.447 44.0003,49 C44.0003,50.103 44.8973,51 46.0003,51 C47.1033,51 48.0003,50.103 48.0003,49 C48.0003,47.897 47.1033,47 46.0003,47 C43.7943,47 42.0003,45.206 42.0003,43 C42.0003,40.794 43.7943,39 46.0003,39 C48.2063,39 50.0003,40.794 50.0003,43 C50.0003,43.553 49.5523,44 49.0003,44 C48.4483,44 48.0003,43.553 48.0003,43 C48.0003,41.897 47.1033,41 46.0003,41 C44.8973,41 44.0003,41.897 44.0003,43 C44.0003,44.103 44.8973,45 46.0003,45 C48.2063,45 50.0003,46.794 50.0003,49 C50.0003,51.206 48.2063,53 46.0003,53" id="Fill-1441" fill="#BA8D00"></path>
                <path d="M46.0003,55 C45.4483,55 45.0003,54.553 45.0003,54 L45.0003,38 C45.0003,37.447 45.4483,37 46.0003,37 C46.5523,37 47.0003,37.447 47.0003,38 L47.0003,54 C47.0003,54.553 46.5523,55 46.0003,55" id="Fill-1442" fill="#BA8D00"></path>
                <path d="M25.0003,0.0253 L25.0003,4.0003 C25.0003,4.5523 25.4483,5.0003 26.0003,5.0003 C26.5523,5.0003 27.0003,4.5523 27.0003,4.0003 L27.0003,0.0253 C26.6683,0.0123 26.3353,0.0003 26.0003,0.0003 C25.6653,0.0003 25.3323,0.0123 25.0003,0.0253" id="Fill-1443" fill="#35495E"></path>
                <path d="M43.6612,6.925 L40.8492,9.736 C40.4592,10.127 40.4592,10.76 40.8492,11.15 C41.0452,11.346 41.3002,11.443 41.5562,11.443 C41.8122,11.443 42.0682,11.346 42.2632,11.15 L45.0752,8.339 C44.6222,7.85 44.1502,7.378 43.6612,6.925" id="Fill-1444" fill="#35495E"></path>
                <path d="M52.0003,26 C52.0003,25.665 51.9873,25.332 51.9753,25 L48.0003,25 C47.4483,25 47.0003,25.447 47.0003,26 C47.0003,26.553 47.4483,27 48.0003,27 L51.9563,27 C51.9693,26.666 52.0003,26.337 52.0003,26" id="Fill-1445" fill="#35495E"></path>
                <path d="M9.7372,40.8496 L6.9252,43.6606 C7.3782,44.1506 7.8502,44.6216 8.3392,45.0746 L11.1512,42.2636 C11.5422,41.8726 11.5422,41.2406 11.1512,40.8496 C10.7602,40.4586 10.1282,40.4586 9.7372,40.8496" id="Fill-1446" fill="#35495E"></path>
                <path d="M26.0003,52 C26.3373,52 26.6663,51.969 27.0003,51.956 L27.0003,48 C27.0003,47.447 26.5523,47 26.0003,47 C25.4483,47 25.0003,47.447 25.0003,48 L25.0003,51.975 C25.3323,51.987 25.6653,52 26.0003,52" id="Fill-1447" fill="#35495E"></path>
                <path d="M0.0256,27 L4.0006,27 C4.5526,27 5.0006,26.553 5.0006,26 C5.0006,25.447 4.5526,25 4.0006,25 L0.0256,25 C0.0126,25.332 0.0006,25.665 0.0006,26 C0.0006,26.335 0.0126,26.668 0.0256,27" id="Fill-1448" fill="#35495E"></path>
                <path d="M6.9254,8.3391 L9.7374,11.1501 C9.9324,11.3461 10.1884,11.4431 10.4444,11.4431 C10.7004,11.4431 10.9564,11.3461 11.1514,11.1501 C11.5414,10.7601 11.5414,10.1271 11.1514,9.7361 L8.3394,6.9251 C7.8504,7.3781 7.3784,7.8501 6.9254,8.3391" id="Fill-1449" fill="#35495E"></path>
                <path d="M46.0003,34 C45.4913,34 44.9923,34.042 44.5003,34.104 C50.4183,34.843 55.0003,39.882 55.0003,46 C55.0003,52.118 50.4183,57.157 44.5003,57.896 C44.9923,57.958 45.4913,58 46.0003,58 C52.6273,58 58.0003,52.627 58.0003,46 C58.0003,39.373 52.6273,34 46.0003,34" id="Fill-1597" fill="#B48F00"></path>
                <path d="M43.0003,49 C43.0003,50.657 44.3433,52 46.0003,52 C47.6573,52 49.0003,50.657 49.0003,49 C49.0003,47.343 47.6573,46 46.0003,46 C44.3433,46 43.0003,44.657 43.0003,43 C43.0003,41.343 44.3433,40 46.0003,40 C47.6573,40 49.0003,41.343 49.0003,43" id="Stroke-2201" stroke="#000000" stroke-width="2" stroke-linecap="round" stroke-linejoin="round"></path>
                <path d="M46.0003,38 L46.0003,54" id="Stroke-2202" stroke="#000000" stroke-width="2" stroke-linecap="round" stroke-linejoin="round"></path>
                <path d="M58.0003,46 C58.0003,52.627 52.6273,58 46.0003,58 C39.3733,58 34.0003,52.627 34.0003,46 C34.0003,39.373 39.3733,34 46.0003,34 C52.6273,34 58.0003,39.373 58.0003,46 Z" id="Stroke-2203" stroke="#000000" stroke-width="2" stroke-linecap="round" stroke-linejoin="round"></path>
                <path d="M34.0003,46 C34.0003,39.373 39.3733,34 46.0003,34 C47.5733,34 49.0723,34.311 50.4493,34.862 C51.4513,32.096 52.0003,29.112 52.0003,26 C52.0003,11.641 40.3593,0 26.0003,0 C11.6413,0 0.0003,11.641 0.0003,26 C0.0003,40.359 11.6413,52 26.0003,52 C29.1123,52 32.0963,51.451 34.8623,50.449 C34.3113,49.072 34.0003,47.573 34.0003,46 Z" id="Stroke-2207" stroke="#000000" stroke-width="2" stroke-linecap="round" stroke-linejoin="round"></path>
                <path d="M26.0003,26 L38.0003,26" id="Stroke-2208" stroke="#000000" stroke-width="2" stroke-linecap="round" stroke-linejoin="round"></path>
                <path d="M26.0003,14 L26.0003,26" id="Stroke-2209" stroke="#000000" stroke-width="2" stroke-linecap="round" stroke-linejoin="round"></path>
                <path d="M26.0003,0 L26.0003,4" id="Stroke-2210" stroke="#000000" stroke-width="2" stroke-linecap="round" stroke-linejoin="round"></path>
                <path d="M26.0003,48 L26.0003,52" id="Stroke-2211" stroke="#000000" stroke-width="2" stroke-linecap="round" stroke-linejoin="round"></path>
                <path d="M52.0003,26 L48.0003,26" id="Stroke-2212" stroke="#000000" stroke-width="2" stroke-linecap="round" stroke-linejoin="round"></path>
                <path d="M4.0003,26 L0.0003,26" id="Stroke-2213" stroke="#000000" stroke-width="2" stroke-linecap="round" stroke-linejoin="round"></path>
                <path d="M44.3851,7.6152 L41.5571,10.4432" id="Stroke-2214" stroke="#000000" stroke-width="2" stroke-linecap="round" stroke-linejoin="round"></path>
                <path d="M10.444,41.5563 L7.616,44.3843" id="Stroke-2215" stroke="#000000" stroke-width="2" stroke-linecap="round" stroke-linejoin="round"></path>
                <path d="M10.444,10.4437 L7.616,7.6157" id="Stroke-2216" stroke="#000000" stroke-width="2" stroke-linecap="round" stroke-linejoin="round"></path>
            </g>
        </g>
    </g>
</svg>